<?xml version="1.0" standalone="no"?>
<!DOCTYPE svg PUBLIC "-//W3C//DTD SVG 20010904//EN"
 "http://www.w3.org/TR/2001/REC-SVG-20010904/DTD/svg10.dtd">
<svg version="1.0" xmlns="http://www.w3.org/2000/svg"
 width="64.000000pt" height="64.000000pt" viewBox="0 0 64.000000 64.000000"
 preserveAspectRatio="xMidYMid meet">

<g transform="translate(0.000000,64.000000) scale(0.100000,-0.100000)"
fill="#f59e0b" stroke="none">
<path d="M292 548 c-14 -14 -16 -40 -3 -53 10 -11 -13 -92 -33 -112 -18 -20
-54 10 -58 49 -2 17 -11 36 -21 42 -36 23 -76 -36 -42 -64 19 -16 21 -100 2
-100 -22 0 -56 29 -59 52 -4 29 -33 46 -56 32 -27 -17 -27 -50 1 -68 14 -10
31 -38 42 -71 l19 -55 236 0 236 0 19 55 c11 33 28 61 42 71 28 18 28 51 1 68
-23 14 -52 -3 -56 -32 -3 -23 -37 -52 -59 -52 -19 0 -17 84 2 100 34 28 -6 87
-43 64 -9 -6 -18 -25 -20 -42 -4 -39 -40 -69 -58 -49 -24 24 -43 100 -30 119
22 36 -32 76 -62 46z m46 -240 c30 -30 -1 -94 -33 -68 -18 15 -20 51 -3 68 15
15 21 15 36 0z"/>
<path d="M102 123 l3 -38 215 0 215 0 3 38 3 37 -221 0 -221 0 3 -37z"/>
</g>
</svg>
